<svg id="Triangle_3_Mtns_Image" data-name="Triangle 3 Mtns Image" xmlns="http://www.w3.org/2000/svg" viewBox="0 0 484.08 344.61"><defs><style>.cls-1{fill:#f8f7f7;}.cls-2{fill:#fdfefe;}</style></defs><title>summit-logo</title><path d="M456.17,444.23l-193.74.07L261,441.83l-28.18-48.62,94.69-162.83,2.61-4.48-2.59-4.49-2.6-4.49L267.6,117.61,170.53,285.75l-2.66,4.6-2.6,4.5,2.6,4.5,54.36,94.17,2.6,4.49,2.59,4.49,22.71,39.33,1.37,2.38H79l-1.22,2.12H457.38ZM219.26,222.16A32.68,32.68,0,0,1,221,218.9c2-3.72,4-7.44,6-11.16,1.29-2.38,2.55-4.78,3.82-7.17l4.91-9.31c2-3.8,4-7.61,6-11.4,1.42-2.67,2.9-5.3,4.33-8,1.3-2.42,2.56-4.87,3.85-7.29,1.9-3.54,3.83-7.07,5.72-10.62,1.53-2.88,3-5.79,4.53-8.68.8-1.51,1.64-3,2.43-4.51,1.16-2.26,2.3-4.54,3.45-6.81a3.57,3.57,0,0,1,1.46-1.68c.66-.35,1-.32,1.35.36.9,1.59,1.77,3.19,2.64,4.8,1,1.91,2.08,3.84,3.1,5.76.52,1,1,2,1.51,3s1.09,1.93,1.62,2.9c1.21,2.24,2.38,4.49,3.61,6.71,1.46,2.65,3,5.26,4.45,7.91.67,1.22,1.23,2.49,1.89,3.71,1.48,2.73,3,5.43,4.48,8.15,1,1.84,1.95,3.7,2.95,5.54,1.43,2.63,2.9,5.23,4.31,7.86,1.88,3.51,3.69,7.06,5.58,10.57,1.43,2.67,3,5.28,4.42,7.95,1.68,3.12,3.31,6.28,5,9.42a2.39,2.39,0,0,1,.25.54c.13.61-.35,1.09-.9.83a5.29,5.29,0,0,1-2-1.34c-2.1-2.54-4.35-5-6.52-7.48-1.85-2.13-3.65-4.32-5.5-6.45-1.62-1.84-3.28-3.64-4.92-5.46-2.21-2.46-4.4-4.93-6.62-7.39-.73-.82-1.49-1.61-2.43-2.61,1,13.33,1.91,26.33,2.86,39.36a.74.74,0,0,1-1.12,0,3.41,3.41,0,0,1-.84-1c-.8-1.73-1.56-3.49-2.29-5.25-.92-2.21-1.79-4.43-2.7-6.64-1.43-3.5-2.85-7-4.32-10.48-1.2-2.86-2.48-5.7-3.72-8.55-1-2.22-1.93-4.45-2.91-6.67-.11-.25-.27-.48-.49-.86-.37.88-.74,1.61-1,2.38-1.18,3.6-2.29,7.21-3.49,10.79-1.41,4.23-2.9,8.43-4.34,12.65-.59,1.73-1.12,3.47-1.69,5.2-1.15,3.43-2.33,6.84-3.44,10.27a3.21,3.21,0,0,1-1.24,1.54c-1-.24-1.25-.84-1.29-1.82,0-1.34-.34-2.67-.5-4-.15-1.19-.27-2.37-.36-3.56-.34-4.25-.65-8.5-1-12.75-.29-3.33-.65-6.66-1-10-.21-2.17-.41-4.35-.64-6.73l-4.86,5.16c-1.55,1.66-3.08,3.34-4.64,5-2.11,2.23-4.26,4.42-6.37,6.65-1.92,2-3.8,4.08-5.71,6.11q-2.49,2.66-5,5.3c-.8.84-1.62,1.66-2.38,2.52-.45.51-.79,1.09-1.27,1.75l-1.39.31C218.33,223.29,219,222.78,219.26,222.16Z" transform="translate(-18.96 -108.61)"/><path d="M464,448.73l-2.6-4.5h-5.19l-193.74.07L261,441.83H250.13l1.37,2.38H73.84l-2.6,4.5L70,450.83H465.17ZM330.14,216.93l-2.6-4.5L267.6,108.61,167.92,281.26l-2.65,4.59-2.6,4.5,2.6,4.5,2.6,4.5,2.6-4.5,2.66-4.61L267.6,126.61l54.72,94.79,2.6,4.5,2.59,4.48,2.61-4.48,2.6-4.48Z" transform="translate(-18.96 -108.61)"/><path class="cls-1" d="M344.21,192.73l-14.07,24.2-2.61,4.48-2.61,4.49-94.7,162.83-2.78,4.79L224.83,398l2.59,4.49,22.71,39.33,1.37,2.38H198l-1.23,2.12-1.39,2.38-.06.11,69.76,0L464,448.73h31.2Zm117.15,251.5h-5.19l-193.74.07L261,441.83l-28.18-48.62,94.69-162.83,2.61-4.48,2.6-4.48,11.51-19.79,143,242.59Z" transform="translate(-18.96 -108.61)"/><path d="M344.18,183.82l-16.64,28.61-2.61,4.49-2.61,4.48-94.7,162.85L224.84,389l-2.61,4.49,2.6,4.49,2.59,4.49L230,398l2.79-4.8,94.69-162.83,2.61-4.48,2.6-4.48,11.51-19.79,143,242.59H456.17l-193.74.07h-5.68l-53.65,0,.06-.11H192.75l-1.23,2.12-1.38,2.38-1.24,2.12-1.34,2.31h42.09l273.39.07Z" transform="translate(-18.96 -108.61)"/><path class="cls-2" d="M257.93,446.33l-1.18-2-1.42-2.47L230,398l-2.59-4.49-2.6-4.49-54.37-94.18-2.6-4.5-2.6-4.5L143,247.32,26.75,448.71H259.3ZM34.54,444.21,143,256.32l19.64,34,2.6,4.5,2.6,4.5,54.36,94.17,2.6,4.49,2.59,4.49,22.71,39.33,1.37,2.38Z" transform="translate(-18.96 -108.61)"/><path d="M266.22,450.83l-1.18-2-1.43-2.47-1.18-2L261,441.83l-28.18-48.62-2.6-4.48-2.6-4.48-54.49-94-2.6-4.49-2.61-4.49L143,238.32,19,453.21l210.69-.06h37.91ZM143,256.32l19.64,34,2.6,4.5,2.6,4.5,54.36,94.17,2.6,4.49,2.59,4.49,22.71,39.33,1.37,2.38h-217Z" transform="translate(-18.96 -108.61)"/><path d="M360.58,305.39c17.64,21.17,34.09,43.93,52.38,64.23l-.22.46c-17.29-8.12-34.25-17.36-51.41-25.93l-.12.24c.65.95,1.27,1.92,1.94,2.83,2.54,3.45,5.11,6.86,7.66,10.29q7.28,9.8,14.53,19.6c2.79,3.79,5.53,7.65,8.3,11.46,1.91,2.61,3.84,5.19,5.75,7.8,2.56,3.47,5.07,7,7.68,10.42,2,2.64,4.17,5.12,6.24,7.71a4.51,4.51,0,0,1,.63,1.55c0,.08-.4.5-.65.55a1.37,1.37,0,0,1-.79-.27c-1.88-1-3.74-2.07-5.66-3-4.16-1.92-8.35-3.76-12.54-5.58q-8.26-3.6-16.54-7.13l-14.4-6.16c-1.83-.78-3.64-1.61-5.47-2.41-.87-.37-1.74-.7-2.78-1.11.05,1.31.07,2.49.16,3.67.5,6.69,1,13.39,1.56,20.08.51,6,1.11,12,1.67,18,.34,3.56.69,7.11,1,10.67.13,1.38.28,2.75.32,4.13,0,1.14-.34,1.29-1.21,1.19-1.9-.21-3.8-.29-5.7-.36-2.49-.08-5-.15-7.47-.13-1.69,0-3.37.26-5,.25-1.83,0-3.66-.22-5.48-.28-1.06,0-2.13.09-3.18,0-.6,0-.76-.64-.68-1.36q.46-4.35.91-8.7.88-8.55,1.75-17.09.64-6.48,1.24-13c.3-3.37.53-6.76.83-10.13.19-2.17.46-4.33.65-6.51.07-.89,0-1.81,0-2.87-1.24.66-2.4,1.26-3.53,1.9-3.51,2-7,3.9-10.52,5.94-4.18,2.45-8.32,5-12.48,7.51-3,1.82-6.08,3.56-9.1,5.39-2.26,1.37-4.49,2.84-6.74,4.25s-4.51,2.78-6.75,4.21a16.87,16.87,0,0,1-2.13,1.57c-.54.23-1.22-.08-1.83-.14.09-.82,0-1.89.31-2.41,2.11-3.08,4.33-6,6.5-9.05,1.13-1.57,2.22-3.19,3.32-4.8,1.7-2.49,3.39-5,5.09-7.47q2.81-4.1,5.63-8.16c2.14-3.07,4.3-6.11,6.44-9.18,2.49-3.58,5-7.18,7.45-10.76,1.62-2.34,3.26-4.66,4.86-7,.32-.47,4.65-6.85,6.3-9.09a16.71,16.71,0,0,0,1.77-2.67c.79-1.63,2.2-2.58,2.91-4.61-1.88,1.17-3.64,2.23-5.36,3.35q-6,3.9-12,7.89c-1.87,1.23-3.68,2.6-5.54,3.84-.75.49-1.6.72-2.36,1.19q-4,2.53-8.06,5.15l-10.74,7.05a2.09,2.09,0,0,0-.28.24c-1.21,1-1.21,1-2.6.84.21-2.56,1.88-3.84,3-5.57,1.37-2.12,2.94-4,4.42-6,2.11-2.84,4.24-5.66,6.33-8.53,1-1.38,1.92-2.88,2.93-4.27q4.63-6.33,9.32-12.6c1.88-2.52,3.86-4.93,5.74-7.45,2.07-2.76,4-5.61,6.12-8.37,2.8-3.73,5.64-7.4,8.46-11.1.56-.73,1.1-1.48,1.63-2.24a1.84,1.84,0,0,0,.34-1,11.93,11.93,0,0,0-1.88.8q-4.26,2.64-8.48,5.37c-1.44.93-2.85,1.95-4.28,2.93-3.27,2.25-6.56,4.48-9.82,6.77-1.49,1-2.92,2.22-4.4,3.28-.14.11-.55-.05-.64-.24-.64-1.27,0-2.36.51-3.28,1.26-2.11,2.65-4.1,4-6.16,1.82-2.84,3.63-5.71,5.47-8.53.89-1.36,6.36-10.09,7.35-11.48,2.14-3,4.38-6,6.42-9.1,2.23-3.45,4.29-7.08,6.42-10.63a1.72,1.72,0,0,0,.19-1c-1.66.78-3.31,1.58-5,2.35-3.61,1.66-7.22,3.33-10.84,4.94-.52.23-1.24.69-1.48-.36.69-1.27,1.3-2.43,1.93-3.57q3.33-6,6.69-12.06c1-1.84,2.09-3.63,3.07-5.51,1.12-2.15,2.15-4.37,3.24-6.54,2-3.94,4-7.85,6-11.8,1.14-2.26,2.21-4.58,3.33-6.86a5.73,5.73,0,0,1,.65-1c.45-.57.76-.5,1.14.22,1.86,3.53,3.67,7.09,5.66,10.5,2.91,5,5.95,9.87,8.94,14.78,2,3.25,3.95,6.52,6,9.73,2.47,3.94,5,7.84,7.49,11.75.11.17.22.34.32.52.56,1,.55,1.12-.19,1.8l-18.35-9.78-.2.28c.39.61.74,1.26,1.16,1.83q1.53,2,3.1,4c3.14,4,6.31,7.91,9.44,11.89,2.41,3.08,4.77,6.23,7.19,9.3,3.29,4.18,6.59,8.35,9.92,12.46,2.52,3.1,5.1,6.11,7.65,9.17a2.05,2.05,0,0,1,.55.82,3.3,3.3,0,0,1,0,1.4c0,.11-.62.18-.86,0-2.61-1.62-5.2-3.29-7.79-4.94-3.67-2.33-7.34-4.63-11-7-2.26-1.44-4.49-3-6.74-4.43s-4.2-2.67-6.3-4Z" transform="translate(-18.96 -108.61)"/><path d="M154.81,341.3c12.8,15.37,24.74,31.88,38,46.62l-.16.32c-12.55-5.89-24.85-12.59-37.3-18.81l-.09.18c.47.68.91,1.39,1.4,2.05,1.85,2.5,3.71,5,5.56,7.47q5.28,7.1,10.54,14.21c2,2.75,4,5.55,6,8.32,1.38,1.9,2.78,3.77,4.17,5.66,1.86,2.52,3.68,5.09,5.57,7.56,1.47,1.92,3,3.72,4.53,5.6a3.14,3.14,0,0,1,.46,1.12c0,.06-.29.36-.47.4s-.39-.1-.57-.19c-1.37-.72-2.72-1.51-4.11-2.15-3-1.39-6.06-2.73-9.1-4.05-4-1.75-8-3.46-12-5.18L156.83,406c-1.33-.57-2.65-1.18-4-1.75-.62-.27-1.25-.51-2-.81,0,.95,0,1.81.11,2.66.37,4.86.73,9.72,1.14,14.58.37,4.35.8,8.69,1.21,13q.38,3.87.74,7.74c.09,1,.2,2,.23,3,0,.82-.24.93-.88.85-1.37-.15-2.75-.21-4.13-.25-1.81-.06-3.62-.11-5.43-.1-1.22,0-2.44.19-3.66.18s-2.65-.16-4-.2c-.76,0-1.54.06-2.3,0-.43,0-.55-.46-.5-1q.35-3.15.67-6.31.63-6.19,1.27-12.4c.31-3.14.61-6.27.89-9.41.22-2.45.39-4.9.61-7.35.14-1.58.33-3.14.47-4.72,0-.65,0-1.32,0-2.09-.9.48-1.74.92-2.57,1.38-2.54,1.43-5.1,2.83-7.63,4.31-3,1.78-6,3.64-9,5.45-2.2,1.32-4.41,2.58-6.6,3.91-1.65,1-3.26,2.06-4.9,3.09s-3.27,2-4.89,3.05a12.3,12.3,0,0,1-1.55,1.14c-.39.16-.88-.06-1.33-.1.07-.6,0-1.37.23-1.75,1.52-2.24,3.14-4.38,4.71-6.57.82-1.14,1.62-2.31,2.41-3.48,1.24-1.81,2.46-3.62,3.7-5.42,1.35-2,2.72-3.95,4.08-5.92,1.56-2.23,3.12-4.44,4.67-6.67,1.81-2.59,3.61-5.2,5.41-7.8,1.18-1.7,2.37-3.39,3.53-5.1.23-.34,3.37-5,4.57-6.6a12.67,12.67,0,0,0,1.28-1.93c.58-1.19,1.59-1.88,2.11-3.35-1.36.85-2.64,1.61-3.89,2.43q-4.38,2.83-8.73,5.72c-1.36.9-2.67,1.89-4,2.79-.54.36-1.16.52-1.71.87q-2.94,1.83-5.85,3.74-3.9,2.53-7.8,5.11a1.51,1.51,0,0,0-.2.17c-.88.75-.88.75-1.88.61.15-1.85,1.36-2.79,2.18-4,1-1.54,2.13-2.93,3.21-4.38,1.53-2.06,3.07-4.1,4.59-6.18.73-1,1.39-2.1,2.13-3.1,2.24-3.06,4.49-6.12,6.75-9.15,1.37-1.82,2.81-3.57,4.18-5.4,1.49-2,2.93-4.07,4.43-6.07,2-2.71,4.1-5.37,6.14-8.06.41-.53.8-1.08,1.19-1.63a1.41,1.41,0,0,0,.24-.75,9.13,9.13,0,0,0-1.37.59c-2.05,1.27-4.11,2.57-6.15,3.89-1,.68-2.07,1.42-3.1,2.13-2.38,1.63-4.76,3.25-7.13,4.91-1.08.76-2.12,1.61-3.19,2.39-.1.07-.4,0-.47-.18a2.34,2.34,0,0,1,.38-2.38c.91-1.53,1.92-3,2.87-4.47,1.33-2.06,2.64-4.14,4-6.19.65-1,1.38-1.89,2-2.9.46-.73,2.62-4.42,3.34-5.43,1.55-2.2,3.18-4.33,4.66-6.61,1.62-2.49,3.11-5.13,4.66-7.71a1.34,1.34,0,0,0,.14-.7c-1.21.57-2.41,1.15-3.62,1.7-2.62,1.21-5.24,2.42-7.87,3.59-.37.17-.9.5-1.07-.26.5-.93.94-1.77,1.4-2.59q2.41-4.38,4.85-8.75c.74-1.34,1.52-2.64,2.23-4,.82-1.56,1.56-3.17,2.35-4.75,1.44-2.86,2.91-5.69,4.34-8.56.83-1.64,1.61-3.32,2.42-5a4.06,4.06,0,0,1,.47-.72c.32-.42.55-.37.83.15,1.34,2.56,2.66,5.15,4.1,7.62,2.12,3.63,4.32,7.16,6.49,10.73,1.44,2.36,2.87,4.73,4.33,7.06,1.8,2.86,3.63,5.69,5.44,8.53a3.48,3.48,0,0,1,.23.38c.41.75.4.8-.13,1.3l-13.32-7.09-.15.2c.28.44.54.91.85,1.32.73,1,1.49,2,2.25,2.93,2.28,2.88,4.57,5.74,6.84,8.63,1.76,2.23,3.47,4.52,5.22,6.75,2.39,3,4.78,6.05,7.2,9,1.83,2.25,3.7,4.43,5.55,6.65a1.55,1.55,0,0,1,.4.59,2.5,2.5,0,0,1,0,1c0,.08-.45.13-.62,0-1.89-1.17-3.77-2.39-5.66-3.58-2.66-1.69-5.32-3.36-8-5.06-1.64-1.06-3.26-2.16-4.9-3.22s-3-1.94-4.57-2.91Z" transform="translate(-18.96 -108.61)"/></svg>